<svg width="1400" height="359" viewBox="0 0 1400 359" fill="none" xmlns="http://www.w3.org/2000/svg">
<path d="M179.405 358.81C131.449 358.81 86.4545 340.182 52.5414 306.269C18.6283 272.355 0 227.361 0 179.405C0 131.449 18.6283 86.4545 52.5414 52.5414C86.4545 18.6283 131.449 0 179.405 0C227.361 0 272.355 18.6283 306.269 52.5414L273.788 85.0215C248.569 59.8016 215.038 45.9498 179.405 45.9498C143.772 45.9498 110.241 59.8016 85.0216 85.0215C59.8017 110.241 45.9498 143.772 45.9498 179.405C45.9498 215.038 59.8017 248.569 85.0216 273.788C137.085 325.852 221.82 325.852 273.788 273.788L306.269 306.269C272.355 340.086 227.265 358.81 179.405 358.81Z" fill="#243F93"/>
<path d="M179.5 264.523C156.764 264.523 135.365 255.639 119.221 239.59L151.701 207.109C159.152 214.561 168.992 218.573 179.5 218.573C190.009 218.573 199.848 214.465 207.299 207.109C214.751 199.658 218.763 189.819 218.763 179.311C218.763 168.802 214.655 158.963 207.299 151.511C201.95 146.162 195.263 142.531 187.907 140.907C174.724 138.041 161.254 142.054 151.701 151.511L119.221 119.031C139.855 98.3965 169.183 89.7991 197.651 96.0085C213.604 99.4476 228.125 107.472 239.78 119.031C255.829 135.08 264.713 156.479 264.713 179.311C264.713 202.047 255.829 223.445 239.78 239.59C223.635 255.734 202.236 264.523 179.5 264.523Z" fill="#243F93"/>
<path d="M474.258 309.971C467.118 316.988 458.008 320.189 448.037 320.189C422.431 320.189 411.598 302.585 411.475 284.611C411.351 266.638 423.047 248.295 448.037 248.295C457.393 248.295 466.256 251.865 473.273 258.882L464.656 267.253C460.101 262.822 454.069 260.729 448.037 260.729C431.418 260.729 424.154 273.162 424.277 284.611C424.401 296.06 430.925 308.001 448.037 308.001C454.069 308.001 460.84 305.539 465.395 300.984L474.258 309.971Z" fill="#243F93"/>
<path d="M448.16 321.789C420.215 321.789 410.243 301.846 410.12 284.734C410.12 274.147 413.936 264.176 420.707 257.282C427.478 250.388 436.957 246.818 448.16 246.818C458.131 246.818 467.241 250.634 474.504 257.774L475.612 258.882L464.779 269.346L463.671 268.361C459.732 264.422 454.192 262.329 448.16 262.329C441.512 262.329 436.095 264.299 432.156 268.361C428.093 272.424 425.878 278.333 426.001 284.734C426.124 295.321 431.91 306.524 448.16 306.524C454.192 306.524 460.347 304.062 464.409 299.999L465.518 298.891L476.597 310.094L475.489 311.202C468.226 318.096 458.87 321.789 448.16 321.789ZM448.16 249.895C437.819 249.895 429.201 253.219 422.923 259.498C416.645 265.776 413.075 275.009 413.198 284.734C413.321 300.369 422.431 318.711 448.16 318.711C457.516 318.711 465.764 315.634 472.165 309.971L465.518 303.2C460.963 307.14 454.438 309.602 448.283 309.602C429.817 309.602 423.169 296.183 423.046 284.734C422.923 277.594 425.631 270.823 430.186 266.145C434.618 261.59 441.02 259.251 448.406 259.251C454.684 259.251 460.593 261.344 465.025 265.161L471.55 258.882C464.656 252.973 456.777 249.895 448.16 249.895Z" fill="#243F93"/>
<path d="M566.833 305.662H530.763L524.854 318.711H510.82L541.72 249.773H555.877L586.776 318.711H572.619L566.833 305.662ZM548.86 264.176L536.057 293.475H561.663L548.86 264.176Z" fill="#243F93"/>
<path d="M589.238 320.189H571.634L565.848 307.14H531.748L525.839 320.189H508.358L540.612 248.173H556.739L589.238 320.189ZM573.727 317.112H584.56L555.015 251.25H542.828L513.282 317.112H523.993L529.902 304.062H567.941L573.727 317.112ZM564.002 295.076H533.718L548.86 260.36L564.002 295.076ZM538.396 291.998H559.324L548.86 267.993L538.396 291.998Z" fill="#243F93"/>
<path d="M691.171 268.73L668.765 298.645H666.18L644.267 268.607V318.711H631.218V249.772H646.237L667.781 279.44L689.324 249.772H704.22V318.711H691.171V268.73V268.73Z" fill="#243F93"/>
<path d="M705.697 320.312H689.57V273.408L669.381 300.245H665.318L664.826 299.63L645.621 273.408V320.312H629.495V248.295H646.729L667.534 276.855L688.339 248.295H705.574V320.312H705.697ZM692.648 317.234H702.619V251.372H690.063L667.781 282.026L645.498 251.372H632.818V317.234H642.79V263.929L667.042 297.168H668.027L692.771 264.176V317.234H692.648Z" fill="#243F93"/>
<path d="M788.3 298.399H768.849V318.711H755.8V249.773C766.634 249.773 777.467 249.649 788.3 249.649C821.908 249.649 822.031 298.399 788.3 298.399ZM768.726 286.458H788.177C804.796 286.458 804.673 262.083 788.177 262.083H768.726V286.458Z" fill="#243F93"/>
<path d="M770.327 320.189H754.2V248.173H755.677C761.094 248.173 766.511 248.173 771.927 248.173C777.344 248.173 782.761 248.173 788.177 248.173C805.782 248.173 815.014 261.222 815.014 274.148C815.014 280.919 812.675 287.197 808.243 291.875C803.319 297.169 796.425 300 788.177 300H770.204V320.189H770.327ZM757.278 317.112H767.249V296.799H788.3C795.687 296.799 801.842 294.337 806.151 289.659C809.967 285.597 812.06 279.934 812.06 274.025C812.06 263.069 804.673 251.127 788.3 251.127C782.884 251.127 777.467 251.127 772.051 251.127C767.126 251.127 762.202 251.127 757.278 251.127V317.112ZM788.3 288.059H767.249V260.606H788.3C797.533 260.606 802.334 267.5 802.334 274.394C802.334 277.964 801.103 281.288 798.888 283.75C796.179 286.581 792.609 288.059 788.3 288.059ZM770.327 284.981H788.3C791.747 284.981 794.579 283.873 796.549 281.657C798.272 279.688 799.257 277.102 799.257 274.271C799.257 269.101 795.81 263.561 788.3 263.561H770.327V284.981V284.981Z" fill="#243F93"/>
<path d="M922.239 249.895V289.412C922.239 309.848 909.683 320.188 892.448 320.188C875.952 320.188 861.794 310.094 861.794 289.412V249.895H874.721V289.412C874.721 301.846 881.861 308.37 892.571 308.37C903.281 308.37 909.436 301.23 909.436 289.412V249.895H922.239Z" fill="#243F93"/>
<path d="M892.325 321.666C872.751 321.666 860.194 308.986 860.194 289.289V248.295H876.198V289.289C876.198 300.369 882.107 306.77 892.448 306.77C902.173 306.77 907.713 300.369 907.713 289.289V248.295H923.716V289.289C923.716 309.232 911.775 321.666 892.325 321.666ZM863.271 251.372V289.289C863.271 310.833 878.906 318.588 892.325 318.588C910.052 318.588 920.639 307.632 920.639 289.289V251.372H910.79V289.289C910.79 302.092 903.897 309.848 892.448 309.848C880.383 309.848 873.12 302.215 873.12 289.289V251.372H863.271Z" fill="#243F93"/>
<path d="M1016.78 266.391C1014.44 262.451 1007.92 258.758 1000.41 258.758C990.809 258.758 986.13 262.821 986.13 267.868C986.13 273.9 993.271 275.501 1001.52 276.485C1015.92 278.209 1029.22 282.025 1029.22 298.398C1029.22 313.786 1015.68 320.311 1000.29 320.311C986.253 320.311 975.42 316.002 970.25 303.322L981.083 297.66C984.161 305.292 992.163 308.616 1000.41 308.616C1008.54 308.616 1016.29 305.784 1016.29 298.275C1016.29 291.75 1009.52 289.165 1000.29 288.181C986.253 286.457 973.205 282.764 973.205 267.253C973.205 253.095 987.238 247.309 999.918 247.186C1010.63 247.186 1021.71 250.264 1027 260.851L1016.78 266.391Z" fill="#243F93"/>
<path d="M1000.41 322.035C984.161 322.035 973.82 316.126 969.019 304.185L968.526 302.831L982.068 295.814L982.683 297.414C985.146 303.693 991.916 307.386 1000.66 307.386C1003.98 307.386 1014.94 306.77 1014.94 298.645C1014.94 295.568 1013.46 291.382 1000.41 290.028C986.377 288.304 971.973 284.365 971.973 267.623C971.973 252.85 986.131 246.079 1000.16 245.956C1014.08 245.956 1023.92 251.004 1028.6 260.483L1029.22 261.837L1016.29 268.484L1015.55 267.253C1013.58 263.929 1007.55 260.359 1000.53 260.359C992.655 260.359 987.854 263.314 987.854 267.992C987.854 271.931 991.793 273.901 1001.89 275.132C1017.03 276.979 1031.06 281.164 1031.06 298.645C1030.94 315.757 1015.18 322.035 1000.41 322.035ZM972.343 304.185C976.898 314.157 985.884 318.835 1000.41 318.835C1013.71 318.835 1027.86 313.418 1027.86 298.399C1027.86 284.119 1017.28 279.933 1001.4 277.963C995.609 277.225 984.653 275.994 984.653 267.746C984.653 262.575 988.839 257.036 1000.41 257.036C1007.92 257.036 1014.2 260.483 1017.28 264.299L1025.03 260.359C1020.6 252.727 1012.23 248.911 1000.04 248.911C987.485 249.034 974.928 254.82 974.928 267.499C974.928 281.041 985.145 284.98 1000.66 286.827C1004.97 287.319 1018.01 288.674 1018.01 298.522C1018.01 305.785 1011.37 310.34 1000.66 310.34C991.301 310.34 983.914 306.524 980.59 299.999L972.343 304.185Z" fill="#243F93"/>
<path d="M537.557 161.222C523.705 174.883 505.746 181.283 486.258 181.283C436.2 181.283 414.993 146.797 414.801 111.737C414.61 76.4869 437.538 40.6632 486.258 40.6632C504.599 40.6632 521.89 47.6369 535.742 61.2977L518.833 77.6332C509.949 68.94 498.008 64.9278 486.258 64.9278C453.682 64.9278 439.639 89.1924 439.83 111.737C440.021 134.091 452.918 157.401 486.258 157.401C498.008 157.401 511.287 152.624 520.171 143.74L537.557 161.222Z" fill="#243F93"/>
<path d="M486.353 186.059C430.373 186.059 410.312 146.032 410.121 111.737C410.025 90.625 417.763 70.5637 431.424 56.8074C445.084 43.0511 464.095 35.7907 486.353 35.7907C506.319 35.7907 524.661 43.4333 539.277 57.7628L542.716 61.2017L518.929 84.2244L515.585 80.9765C508.134 73.6207 497.721 69.6084 486.353 69.6084C473.839 69.6084 463.713 73.4295 456.357 80.8808C448.81 88.4277 444.607 99.7002 444.702 111.641C444.893 131.416 455.879 152.528 486.353 152.528C497.435 152.528 509.471 147.752 516.923 140.205L520.362 136.766L544.435 161.126L540.996 164.469C526.762 178.703 507.847 186.059 486.353 186.059ZM486.353 45.4394C466.674 45.4394 450.052 51.7443 438.206 63.59C426.265 75.5312 419.578 93.1087 419.673 111.737C419.865 143.071 437.442 176.602 486.353 176.602C503.549 176.602 518.833 171.252 530.775 161.126L520.075 150.331C510.904 157.687 498.39 162.177 486.353 162.177C448.906 162.177 435.34 135.046 435.149 111.737C435.054 97.2165 440.308 83.5558 449.574 74.1939C458.745 65.0231 471.451 60.151 486.353 60.151C498.581 60.151 509.854 64.0677 518.738 71.1369L528.864 61.2973C516.732 50.8846 502.116 45.4394 486.353 45.4394Z" fill="#243F93"/>
<path d="M722.884 111.546C722.502 146.415 701.104 181.283 653.721 181.283C606.338 181.283 584.366 147.179 584.366 111.737C584.366 76.2958 607.102 40.6632 653.721 40.6632C700.148 40.6632 723.267 76.2959 722.884 111.546ZM609.395 112.12C609.968 134.282 621.91 157.974 653.721 157.974C685.532 157.974 697.474 134.091 697.856 111.928C698.238 89.1922 685.532 63.7815 653.721 63.7815C621.91 63.7815 608.822 89.3835 609.395 112.12Z" fill="#243F93"/>
<path d="M653.721 186.059C602.517 186.059 579.59 148.707 579.59 111.737C579.59 75.149 602.804 35.8862 653.721 35.8862C674.929 35.8862 693.079 43.0509 706.453 56.5206C720.21 70.3725 727.948 90.5292 727.661 111.641C727.279 148.707 704.256 186.059 653.721 186.059ZM653.721 45.4392C609.3 45.4392 589.143 79.8299 589.143 111.737C589.143 141.638 606.052 176.506 653.721 176.506C700.722 176.506 717.821 141.447 718.108 111.45C718.299 92.822 711.612 75.2445 699.575 63.1122C688.207 51.5531 672.254 45.4392 653.721 45.4392ZM653.721 162.75C618.471 162.75 605.192 135.524 604.619 112.214C604.236 96.8341 609.491 82.4092 619.044 72.5696C627.737 63.6853 639.774 58.9089 653.721 58.9089C667.573 58.9089 679.514 63.4943 688.112 72.283C697.569 81.9315 702.919 96.3565 702.632 111.928C702.25 135.428 689.163 162.75 653.721 162.75ZM614.172 112.023C614.458 121.672 617.993 153.197 653.721 153.197C682.189 153.197 692.697 131.798 693.079 111.832C693.27 98.8404 688.971 86.8993 681.329 79.0658C674.451 72.0922 665.185 68.5575 653.721 68.5575C642.162 68.5575 632.8 72.1877 625.826 79.3524C618.088 87.2814 613.885 99.1269 614.172 112.023Z" fill="#243F93"/>
<path d="M898.755 109.635C899.328 143.74 878.502 178.226 831.311 178.226C814.784 178.226 794.914 178.226 778.292 178.226V43.3378C794.818 43.3378 814.688 43.3378 831.311 43.3378C877.643 43.3378 898.182 76.2956 898.755 109.635ZM803.607 153.77H831.311C861.976 153.77 874.108 131.416 873.535 109.445C872.962 88.428 860.638 67.4115 831.311 67.4115H803.607V153.77Z" fill="#243F93"/>
<path d="M831.311 183.002H773.515V38.5614H831.311C880.318 38.5614 902.958 74.194 903.531 109.54C903.913 130.366 896.653 149.854 883.661 163.037C870.86 176.124 852.709 183.002 831.311 183.002ZM783.164 173.449H831.406C850.417 173.449 865.797 167.718 876.878 156.35C888.055 144.982 894.361 127.977 894.074 109.731C893.596 81.3589 876.879 48.1144 831.406 48.1144H783.164V173.449ZM831.311 158.547H798.831V62.6351H831.311C865.033 62.6351 877.738 87.7592 878.312 109.253C878.694 123.678 874.108 136.575 865.415 145.459C857.199 154.057 845.354 158.547 831.311 158.547ZM808.384 148.994H831.311C842.87 148.994 852.041 145.555 858.537 138.868C865.415 131.799 869.045 121.386 868.663 109.54C868.185 91.4849 858.059 72.1881 831.215 72.1881H808.288V148.994H808.384Z" fill="#243F93"/>
<path d="M1054.66 178.226H953.685C953.685 133.327 953.685 88.2368 953.685 43.3378H1054.66V67.9846H978.905V99.0318H1051.99V122.723H978.905V153.197H1054.66V178.226Z" fill="#243F93"/>
<path d="M1059.44 183.002H948.908V38.5614H1059.44V72.7613H983.681V94.2555H1056.76V127.5H983.681V148.421H1059.44V183.002ZM958.461 173.449H1049.88V157.974H974.128V117.947H1047.21V103.808H974.128V63.2083H1049.88V48.1144H958.461V173.449Z" fill="#243F93"/>
<path d="M1232.44 178.226H1202.16L1162.9 133.136H1138.44V178.226H1113.03V43.1466C1134.43 43.1466 1155.83 43.3375 1177.22 43.3375C1209.04 43.5286 1225.75 64.7361 1225.75 88.0454C1225.75 106.578 1217.25 125.207 1191.65 130.461L1232.54 176.506V178.226H1232.44ZM1138.44 67.029V110.208H1177.13C1193.27 110.208 1200.25 99.4137 1200.25 88.6189C1200.25 77.824 1193.08 67.029 1177.13 67.029H1138.44Z" fill="#243F93"/>
<path d="M1237.22 183.002H1200.06L1160.79 137.912H1143.31V183.002H1108.35V38.3705H1113.12C1123.82 38.3705 1134.52 38.3705 1145.22 38.4661C1155.92 38.4661 1166.62 38.5614 1177.32 38.5614C1214 38.7525 1230.63 64.3544 1230.63 88.0458C1230.63 110.304 1219.74 126.258 1200.44 133.041L1237.41 174.691V183.002H1237.22ZM1204.36 173.449H1223.37L1182.48 127.404L1190.6 125.78C1216.97 120.43 1220.88 99.8915 1220.88 88.0458C1220.88 68.2711 1207.32 48.3054 1177.03 48.1144C1166.33 48.1144 1155.64 48.1146 1144.94 48.0191C1135.86 48.0191 1126.78 47.9234 1117.61 47.9234V173.449H1133.47V128.359H1165.09L1204.36 173.449ZM1177.22 114.985H1133.76V62.2529H1177.22C1196.43 62.2529 1205.12 75.9138 1205.12 88.6192C1205.12 101.707 1196.43 114.985 1177.22 114.985ZM1143.22 105.432H1177.13C1190.69 105.432 1195.47 96.7393 1195.47 88.6192C1195.47 80.4992 1190.69 71.8059 1177.13 71.8059H1143.22V105.432Z" fill="#243F93"/>
<path d="M1370.58 75.9136C1365.99 68.1757 1353.19 60.9154 1338.57 60.9154C1319.66 60.9154 1310.68 68.8444 1310.68 78.875C1310.68 90.6252 1324.53 93.8732 1340.77 95.8793C1368.95 99.3184 1395.13 106.674 1395.13 138.868C1395.13 168.96 1368.57 181.856 1338.48 181.856C1310.97 181.856 1289.76 173.354 1279.73 148.707L1300.94 137.721C1306.95 152.529 1322.53 159.12 1338.86 159.12C1354.81 159.12 1369.91 153.579 1369.91 138.868C1369.91 126.162 1356.63 120.908 1338.67 118.998C1311.16 115.75 1285.65 108.394 1285.65 78.1109C1285.65 50.3118 1312.97 39.0393 1337.91 38.7527C1358.92 38.7527 1380.7 44.6754 1390.92 65.5009L1370.58 75.9136Z" fill="#243F93"/>
<path d="M1338.38 186.442C1305.71 186.442 1285.08 174.596 1275.14 150.331L1273.52 146.319L1303.23 130.939L1305.23 135.811C1309.92 147.37 1322.43 154.153 1338.77 154.153C1344.88 154.153 1365.04 153.006 1365.04 138.677C1365.04 135.62 1365.04 126.449 1338.1 123.583C1309.72 120.239 1280.87 112.215 1280.87 78.0153C1280.87 47.8279 1309.44 34.1671 1337.81 33.8806C1365.9 33.8806 1385.67 44.1021 1395.13 63.3036L1397.23 67.5069L1368.86 82.123L1366.56 78.3019C1362.84 72.0924 1351.85 65.5965 1338.67 65.5965C1324.15 65.5965 1315.55 70.4683 1315.55 78.7794C1315.55 85.3709 1322.81 88.8103 1341.44 91.0075C1360.45 93.3957 1400 98.2677 1400 138.677C1399.81 168.195 1376.31 186.442 1338.38 186.442ZM1285.84 150.714C1294.73 168.578 1311.64 176.889 1338.38 176.889C1350.52 176.889 1390.26 174.118 1390.26 138.677C1390.26 112.024 1371.05 104.286 1340.1 100.465C1328.16 99.0319 1305.81 96.3569 1305.81 78.7794C1305.81 67.7935 1314.41 56.0435 1338.48 56.0435C1353 56.0435 1365.42 62.4441 1371.82 69.7999L1384.05 63.4949C1375.54 50.2162 1359.97 43.4335 1337.62 43.4335C1315.74 43.6246 1290.14 52.7954 1290.14 78.0153C1290.14 103.14 1309.63 110.686 1338.96 114.126C1347.65 115.081 1374.4 117.947 1374.4 138.677C1374.4 154.153 1360.64 163.706 1338.57 163.706C1320.33 163.706 1305.81 156.445 1298.45 144.026L1285.84 150.714Z" fill="#243F93"/>
</svg>
