<svg width="703" height="703" viewBox="0 0 703 703" fill="none" xmlns="http://www.w3.org/2000/svg">
<path d="M403.463 702.679C313.485 702.679 223.397 668.444 154.926 599.863C88.5399 533.477 52 445.145 52 351.326C52 257.508 88.5399 169.175 154.926 102.789C291.978 -34.263 514.948 -34.263 652 102.789L588.357 166.432C486.418 64.4936 320.508 64.4936 218.459 166.432C169.081 215.81 141.868 281.538 141.868 351.326C141.868 421.224 169.081 486.842 218.459 536.22C320.398 638.158 486.309 638.158 588.357 536.22L652 599.863C583.529 668.444 493.551 702.679 403.463 702.679Z" fill="white"/>
<path d="M403.682 518.334C359.132 518.334 317.216 500.997 285.614 469.395L349.257 405.752C363.741 420.236 383.163 428.246 403.682 428.246C424.202 428.246 443.514 420.236 458.108 405.752C488.064 375.796 488.064 326.966 458.108 296.9C447.684 286.476 434.516 279.234 420.142 276.161C394.355 270.565 367.911 278.356 349.257 296.9L285.614 233.257C325.994 192.877 383.382 176.088 439.235 188.158C470.507 194.961 499.037 210.543 521.751 233.257C586.82 298.327 586.82 404.216 521.751 469.285C490.259 500.887 448.342 518.334 403.682 518.334Z" fill="white"/>
</svg>
