<svg width="103" height="125" viewBox="0 0 103 125" fill="none" xmlns="http://www.w3.org/2000/svg">
<g clip-path="url(#clip0)">
<rect width="103" height="125" fill="white"/>
<path d="M56.4501 80.38C45.7201 80.38 35.6201 76.2 28.0301 68.61C20.4401 61.02 16.2601 50.93 16.2601 40.19C16.2601 29.46 20.4401 19.36 28.0301 11.77C35.6201 4.17999 45.7101 0 56.4501 0C67.1901 0 77.2801 4.17999 84.8701 11.77L77.6001 19.04C71.9501 13.39 64.4401 10.28 56.4601 10.28C48.4801 10.28 40.9601 13.39 35.3201 19.04C29.6701 24.69 26.5601 32.2 26.5601 40.18C26.5601 48.16 29.6701 55.68 35.3201 61.32C46.9801 72.98 65.9501 72.98 77.6101 61.32L84.8801 68.59C77.2701 76.2 67.1801 80.38 56.4501 80.38Z" fill="#243F93"/>
<path d="M56.4701 59.28C51.3701 59.28 46.5801 57.29 42.9701 53.69L50.2401 46.4199C51.9001 48.0799 54.1101 49 56.4601 49C58.8101 49 61.0201 48.0799 62.6801 46.4199C64.3401 44.7599 65.2601 42.5499 65.2601 40.1999C65.2601 37.8499 64.3401 35.6399 62.6801 33.9799C61.4801 32.7799 59.9801 31.96 58.3401 31.6C55.3901 30.96 52.3601 31.8499 50.2401 33.9799L42.9701 26.71C47.5801 22.1 54.1501 20.17 60.5301 21.56C64.1001 22.34 67.3701 24.12 69.9601 26.71C73.5601 30.31 75.5501 35.11 75.5501 40.21C75.5501 45.31 73.5601 50.0999 69.9601 53.7099C66.3601 57.2899 61.5701 59.28 56.4701 59.28Z" fill="#243F93"/>
<path d="M24.9986 123.668C24.1822 124.471 23.1407 124.837 22.0006 124.837C19.0729 124.837 17.8343 122.824 17.8202 120.769C17.8061 118.714 19.1433 116.617 22.0006 116.617C23.0703 116.617 24.0837 117.025 24.886 117.827L23.9007 118.784C23.3799 118.278 22.6902 118.038 22.0006 118.038C20.1004 118.038 19.2699 119.46 19.284 120.769C19.2981 122.078 20.0441 123.443 22.0006 123.443C22.6902 123.443 23.4644 123.162 23.9852 122.641L24.9986 123.668Z" fill="#243F93" stroke="#4F83BB" stroke-width="0.25" stroke-miterlimit="10"/>
<path d="M34.4573 123.176H30.3332L29.6576 124.668H28.053L31.5859 116.786H33.2046L36.7375 124.668H35.1188L34.4573 123.176ZM32.3882 118.432L30.9244 121.782H33.852L32.3882 118.432Z" fill="#243F93" stroke="#4F83BB" stroke-width="0.25" stroke-miterlimit="10"/>
<path d="M47.5331 118.953L44.9715 122.374H44.6759L42.1704 118.939V124.668H40.6785V116.786H42.3957L44.8588 120.178L47.322 116.786H49.0252V124.668H47.5331V118.953V118.953Z" fill="#243F93" stroke="#4F83BB" stroke-width="0.25" stroke-miterlimit="10"/>
<path d="M57.5127 122.331H55.2887V124.654H53.7968V116.772C55.0354 116.772 56.274 116.757 57.5127 116.757C61.3693 116.772 61.3693 122.331 57.5127 122.331ZM55.2887 120.98H57.5127C59.4128 120.98 59.3988 118.193 57.5127 118.193H55.2887V120.98Z" fill="#243F93" stroke="#4F83BB" stroke-width="0.25" stroke-miterlimit="10"/>
<path d="M71.7005 116.786V121.304C71.7005 123.64 70.2648 124.823 68.2943 124.823C66.4082 124.823 64.7896 123.669 64.7896 121.304V116.786H66.2675V121.304C66.2675 122.725 67.0838 123.471 68.3084 123.471C69.5329 123.471 70.2367 122.655 70.2367 121.304V116.786H71.7005Z" fill="#243F93" stroke="#4F83BB" stroke-width="0.25" stroke-miterlimit="10"/>
<path d="M81.3985 118.686C81.1311 118.235 80.3851 117.813 79.5265 117.813C78.4286 117.813 77.8937 118.278 77.8937 118.855C77.8937 119.544 78.7101 119.727 79.6532 119.84C81.3 120.037 82.8201 120.473 82.8201 122.345C82.8201 124.105 81.2718 124.851 79.5124 124.851C77.9078 124.851 76.6692 124.358 76.078 122.908L77.3166 122.261C77.6685 123.134 78.5834 123.514 79.5265 123.514C80.4554 123.514 81.3422 123.19 81.3422 122.331C81.3422 121.585 80.568 121.29 79.5124 121.177C77.9078 120.98 76.4158 120.558 76.4158 118.784C76.4158 117.166 78.0204 116.504 79.4702 116.49C80.6947 116.49 81.9615 116.842 82.5668 118.052L81.3985 118.686Z" fill="#243F93" stroke="#4F83BB" stroke-width="0.25" stroke-miterlimit="10"/>
<path d="M12.8501 106.52C11.4001 107.95 9.52013 108.62 7.48013 108.62C2.24014 108.62 0.0201239 105.01 0.000123947 101.34C-0.0198761 97.6499 2.38014 93.8999 7.48013 93.8999C9.40013 93.8999 11.2101 94.6299 12.6601 96.0599L10.8901 97.7699C9.96012 96.8599 8.71013 96.4399 7.48013 96.4399C4.07013 96.4399 2.60013 98.9799 2.62013 101.34C2.64013 103.68 3.99013 106.12 7.48013 106.12C8.71013 106.12 10.1001 105.62 11.0301 104.69L12.8501 106.52Z" fill="#243F93" stroke="#243F93" stroke-miterlimit="10"/>
<path d="M32.2501 101.31C32.2101 104.96 29.9701 108.61 25.0101 108.61C20.0501 108.61 17.7501 105.04 17.7501 101.33C17.7501 97.6199 20.1301 93.8899 25.0101 93.8899C29.8701 93.8899 32.2901 97.6199 32.2501 101.31ZM20.3701 101.38C20.4301 103.7 21.6801 106.18 25.0101 106.18C28.3401 106.18 29.5901 103.68 29.6301 101.36C29.6701 98.9799 28.3401 96.3199 25.0101 96.3199C21.6801 96.3099 20.3101 98.9899 20.3701 101.38Z" fill="#243F93" stroke="#243F93" stroke-miterlimit="10"/>
<path d="M50.6602 101.11C50.7202 104.68 48.5402 108.29 43.6002 108.29C41.8702 108.29 39.7902 108.29 38.0502 108.29V94.1699C39.7802 94.1699 41.8602 94.1699 43.6002 94.1699C48.4402 94.1699 50.6002 97.6199 50.6602 101.11ZM40.7002 105.73H43.6002C46.8102 105.73 48.0802 103.39 48.0202 101.09C47.9602 98.8899 46.6702 96.6899 43.6002 96.6899H40.7002V105.73Z" fill="#243F93" stroke="#243F93" stroke-miterlimit="10"/>
<path d="M66.9802 108.29H56.4102C56.4102 103.59 56.4102 98.8699 56.4102 94.1699H66.9802V96.7499H59.0502V99.9999H66.7002V102.48H59.0502V105.67H66.9802V108.29Z" fill="#243F93" stroke="#243F93" stroke-miterlimit="10"/>
<path d="M85.5901 108.29H82.4201L78.3101 103.57H75.7501V108.29H73.0901V94.1499C75.3301 94.1499 77.5701 94.1699 79.8101 94.1699C83.1401 94.1899 84.8901 96.4099 84.8901 98.8499C84.8901 100.79 84.0001 102.74 81.3201 103.29L85.6001 108.11V108.29H85.5901ZM75.7501 96.6499V101.17H79.8001C81.4901 101.17 82.2201 100.04 82.2201 98.9099C82.2201 97.7799 81.4701 96.6499 79.8001 96.6499H75.7501Z" fill="#243F93" stroke="#243F93" stroke-miterlimit="10"/>
<path d="M100.05 97.5799C99.5702 96.7699 98.2302 96.0099 96.7002 96.0099C94.7202 96.0099 93.7802 96.8399 93.7802 97.8899C93.7802 99.1199 95.2301 99.4599 96.9301 99.6699C99.8801 100.03 102.62 100.8 102.62 104.17C102.62 107.32 99.8402 108.67 96.6902 108.67C93.8102 108.67 91.5902 107.78 90.5402 105.2L92.7602 104.05C93.3902 105.6 95.0202 106.29 96.7302 106.29C98.4002 106.29 99.9802 105.71 99.9802 104.17C99.9802 102.84 98.5901 102.29 96.7101 102.09C93.8301 101.75 91.1602 100.98 91.1602 97.8099C91.1602 94.8999 94.0202 93.7199 96.6302 93.6899C98.8302 93.6899 101.11 94.3099 102.18 96.4899L100.05 97.5799Z" fill="#243F93" stroke="#243F93" stroke-miterlimit="10"/>
</g>
<defs>
<clipPath id="clip0">
<rect width="103" height="125" fill="white"/>
</clipPath>
</defs>
</svg>
